<svg xmlns="http://www.w3.org/2000/svg" width="65.717" height="56.753" viewBox="0 0 65.717 56.753"><g transform="translate(41.349 16.321)"><g transform="translate(0 0)"><path d="M344.858,165.173l-3.307-2.858a.982.982,0,1,0-1.284,1.486l3.307,2.858a2.829,2.829,0,0,1,.29,3.985L322.384,195.5a.982.982,0,0,0,1.486,1.285l21.48-24.854A4.8,4.8,0,0,0,344.858,165.173Z" transform="translate(-322.145 -162.076)" fill="#04165d"/></g></g><g transform="translate(34.489)"><path d="M292.453,49.3l-15.3-13.221a4.79,4.79,0,0,0-6.756.492l-1.458,1.687a.982.982,0,0,0,1.486,1.284l1.458-1.687a2.826,2.826,0,0,1,3.986-.29l15.3,13.221a.982.982,0,1,0,1.285-1.486Z" transform="translate(-268.702 -34.917)" fill="#04165d"/></g><g transform="translate(15.986 1.789)"><g transform="translate(0 0)"><path d="M157.475,57.979,131.009,49.1a4.8,4.8,0,0,0-6.064,3.018l-.349,1.041a.982.982,0,1,0,1.862.625l.349-1.041a2.829,2.829,0,0,1,3.577-1.78l26.465,8.877a2.829,2.829,0,0,1,1.78,3.577l-12.313,36.712a.982.982,0,1,0,1.862.625l12.313-36.712A4.8,4.8,0,0,0,157.475,57.979Z" transform="translate(-124.545 -48.854)" fill="#04165d"/></g></g><g transform="translate(0 8.452)"><g transform="translate(0 0)"><path d="M32.7,100.769H4.79A4.8,4.8,0,0,0,0,105.559V144.28a4.8,4.8,0,0,0,4.79,4.79H32.7a4.8,4.8,0,0,0,4.79-4.79V105.559A4.8,4.8,0,0,0,32.7,100.769ZM35.53,144.28a2.829,2.829,0,0,1-2.826,2.826H4.79a2.829,2.829,0,0,1-2.826-2.826V105.559a2.829,2.829,0,0,1,2.826-2.826H32.7a2.829,2.829,0,0,1,2.826,2.826V144.28Z" transform="translate(0 -100.769)" fill="#04165d"/></g></g><g transform="translate(3.297 35.56)"><path d="M55.6,311.96H26.666a.982.982,0,0,0,0,1.964H55.6a.982.982,0,1,0,0-1.964Z" transform="translate(-25.684 -311.96)" fill="#04165d"/></g><g transform="translate(15.492 41.176)"><path d="M133.844,355.718H121.682a.982.982,0,1,0,0,1.964h12.162a.982.982,0,1,0,0-1.964Z" transform="translate(-120.7 -355.718)" fill="#04165d"/></g><g transform="translate(7.875 41.176)"><path d="M66.68,355.718H62.336a.982.982,0,1,0,0,1.964H66.68a.982.982,0,1,0,0-1.964Z" transform="translate(-61.354 -355.718)" fill="#04165d"/></g><g transform="translate(7.875 44.931)"><path d="M82.116,384.969H62.336a.982.982,0,0,0,0,1.964H82.116a.982.982,0,0,0,0-1.964Z" transform="translate(-61.354 -384.969)" fill="#04165d"/></g><g transform="translate(7.875 48.685)"><g transform="translate(0 0)"><path d="M82.116,414.219H62.336a.982.982,0,1,0,0,1.964H82.116a.982.982,0,1,0,0-1.964Z" transform="translate(-61.354 -414.219)" fill="#04165d"/></g></g><g transform="translate(7.904 12.005)"><path d="M83.218,136.292a.982.982,0,0,0-.793-.668l-6.3-.916L73.3,129a.982.982,0,0,0-1.762,0l-2.819,5.711-6.3.916a.982.982,0,0,0-.544,1.675l4.561,4.445-1.077,6.277a.982.982,0,0,0,1.425,1.035l5.637-2.964,5.637,2.964a.982.982,0,0,0,1.425-1.035l-1.077-6.277,4.561-4.445A.982.982,0,0,0,83.218,136.292Zm-6.55,4.406a.982.982,0,0,0-.283.869l.828,4.825-4.333-2.278a.983.983,0,0,0-.914,0l-4.333,2.278.828-4.825a.982.982,0,0,0-.283-.869l-3.505-3.417,4.844-.7a.982.982,0,0,0,.739-.537l2.166-4.39,2.166,4.39a.982.982,0,0,0,.739.537l4.844.7Z" transform="translate(-61.58 -128.449)" fill="#fdc71b"/></g></svg>