<svg xmlns="http://www.w3.org/2000/svg" width="57.275" height="57.275" viewBox="0 0 57.275 57.275"><path d="M17.909,34.137H16V30.318a4.778,4.778,0,0,1,4.773-4.773H53.229V23.636H51.32a.955.955,0,0,1-.675-1.63l5.728-5.728a.955.955,0,0,1,1.35,0l5.728,5.728a.955.955,0,0,1-.675,1.63H60.865v1.909h3.818a4.778,4.778,0,0,1,4.773,4.773V49.41H67.548V30.318a2.867,2.867,0,0,0-2.864-2.864H60.865V44.637H58.956V22.682a.955.955,0,0,1,.955-.955h.559L57.047,18.3l-3.423,3.423h.559a.955.955,0,0,1,.955.955v22.91H53.229V27.455H20.773a2.867,2.867,0,0,0-2.864,2.864Zm2.864,29.592h15.9l-2.291,7.637H32.228v1.909h21V71.366H51.075l-1.228-4.093-1.829.549,1.063,3.544H36.374l2.291-7.637h6.927V61.82H20.773a2.867,2.867,0,0,1-2.864-2.864V58H44.638V56.092H17.909V36.046H16v22.91A4.778,4.778,0,0,0,20.773,63.729ZM49.41,47.5V32.228H45.592V54.183H20.773V52.274h3.818V44.637a.955.955,0,0,1,.955-.955h5.728a.955.955,0,0,1,.955.955v7.637h1.909V37.955A.955.955,0,0,1,35.092,37h5.728a.955.955,0,0,1,.955.955V52.274h1.909v-21a.955.955,0,0,1,.955-.955h5.728a.955.955,0,0,1,.955.955V47.5ZM30.319,45.592H26.5v6.682h3.818Zm9.546-6.682H36.046V52.274h3.818ZM20.773,29.364v1.909h1.909V29.364Zm5.728,0H24.591v1.909H26.5Zm1.909,0v1.909h1.909V29.364ZM72.436,68.386a2.863,2.863,0,0,1-2.025,4.888,2.923,2.923,0,0,1-2.025-.839l-4.569-4.569a11.464,11.464,0,1,1,4.049-4.049ZM67.548,58A9.546,9.546,0,1,0,58,67.547,9.546,9.546,0,0,0,67.548,58Zm3.538,11.735-4.342-4.342a11.561,11.561,0,0,1-1.349,1.349l4.342,4.342a.954.954,0,1,0,1.348-1.348ZM65.638,58A7.637,7.637,0,1,1,58,50.365,7.637,7.637,0,0,1,65.638,58Zm-1.909,0A5.728,5.728,0,1,0,58,63.729,5.727,5.727,0,0,0,63.729,58Zm-9.546,0h1.909A1.911,1.911,0,0,1,58,56.092V54.183A3.823,3.823,0,0,0,54.183,58Zm12.41-36.274H68.5A5.734,5.734,0,0,0,62.775,16v1.909a3.823,3.823,0,0,1,3.818,3.818Z" transform="translate(-16 -16)" fill="#04165d"/></svg>