<svg xmlns="http://www.w3.org/2000/svg" width="48.928" height="56.455" viewBox="0 0 48.928 56.455"><path d="M53.987,2H11.646A5.651,5.651,0,0,0,6,7.646V52.81a5.651,5.651,0,0,0,5.646,5.646H53.987a.941.941,0,0,0,.941-.941V2.941A.941.941,0,0,0,53.987,2Zm-.941,45.164H49.377A4.719,4.719,0,0,1,53.046,43.5Zm0-39.614a4.719,4.719,0,0,1-3.669-3.669h3.669Zm-41.4-3.669h35.83a6.589,6.589,0,0,0,5.57,5.57V41.594a6.59,6.59,0,0,0-5.57,5.57H11.646a5.617,5.617,0,0,0-3.764,1.449V7.646A3.767,3.767,0,0,1,11.646,3.882Zm41.4,52.691h-41.4a3.764,3.764,0,1,1,0-7.527h41.4Z" transform="translate(-6 -2)" fill="#04165d"/><path d="M43,54h9.409v1.882H43Z" transform="translate(-8.186 -5.072)" fill="#04165d"/><path d="M14,56H24.35v1.882H14Z" transform="translate(-6.473 -5.19)" fill="#04165d"/><path d="M37,54h3.764v1.882H37Z" transform="translate(-7.831 -5.072)" fill="#04165d"/><path d="M27,56h1.882v1.882H27Z" transform="translate(-7.241 -5.19)" fill="#04165d"/><path d="M11,7h1.882V27.7H11Z" transform="translate(-6.295 -2.295)" fill="#04165d"/><path d="M11,31h1.882v1.882H11Z" transform="translate(-6.295 -3.713)" fill="#04165d"/><path d="M11,35h1.882v1.882H11Z" transform="translate(-6.295 -3.95)" fill="#04165d"/><path d="M11,39h1.882v1.882H11Z" transform="translate(-6.295 -4.186)" fill="#04165d"/><path d="M32.7,22.35H30.823a.942.942,0,0,1-.941-.941H28a2.826,2.826,0,0,0,2.823,2.823v.941H32.7v-.941a2.826,2.826,0,0,0,2.823-2.823v-.941A2.826,2.826,0,0,0,32.7,17.646H30.823a.942.942,0,0,1-.941-.941v-.941a.942.942,0,0,1,.941-.941H32.7a.942.942,0,0,1,.941.941h1.882A2.826,2.826,0,0,0,32.7,12.941V12H30.823v.941A2.826,2.826,0,0,0,28,15.764V16.7a2.826,2.826,0,0,0,2.823,2.823H32.7a.942.942,0,0,1,.941.941v.941A.942.942,0,0,1,32.7,22.35Z" transform="translate(-7.3 -2.591)" fill="#fdc71b"/><path d="M31.35,28.7A10.35,10.35,0,1,0,21,18.35,10.362,10.362,0,0,0,31.35,28.7Zm0-18.818a8.468,8.468,0,1,1-8.468,8.468A8.479,8.479,0,0,1,31.35,9.882Z" transform="translate(-6.886 -2.354)" fill="#04165d"/><path d="M25,45H38.173v1.882H25Z" transform="translate(-7.123 -4.541)" fill="#04165d"/><path d="M30.781,32v7.138L28.623,36.98l-1.33,1.33,3.764,3.764a.94.94,0,0,0,1.33,0l3.764-3.764-1.33-1.33-2.158,2.158V32Z" transform="translate(-7.258 -3.772)" fill="#04165d"/></svg>