<svg xmlns="http://www.w3.org/2000/svg" width="17.314" height="17.313" viewBox="0 0 17.314 17.313"><defs><style>.a{fill:#fff;}</style></defs><path class="a" d="M8.657,0C6.305,0,6.012.011,5.088.052a6.383,6.383,0,0,0-2.1.4,4.239,4.239,0,0,0-1.534,1,4.224,4.224,0,0,0-1,1.534,6.365,6.365,0,0,0-.4,2.1C.009,6.012,0,6.305,0,8.657S.011,11.3.052,12.226a6.387,6.387,0,0,0,.4,2.1,4.245,4.245,0,0,0,1,1.534,4.233,4.233,0,0,0,1.534,1,6.391,6.391,0,0,0,2.1.4c.923.043,1.217.052,3.569.052s2.645-.011,3.569-.052a6.406,6.406,0,0,0,2.1-.4,4.424,4.424,0,0,0,2.532-2.532,6.387,6.387,0,0,0,.4-2.1c.043-.923.052-1.217.052-3.569s-.011-2.645-.052-3.569a6.4,6.4,0,0,0-.4-2.1,4.249,4.249,0,0,0-1-1.534,4.218,4.218,0,0,0-1.534-1,6.369,6.369,0,0,0-2.1-.4C11.3.009,11.009,0,8.657,0Zm0,1.558c2.311,0,2.586.012,3.5.051a4.77,4.77,0,0,1,1.607.3,2.849,2.849,0,0,1,1.643,1.643,4.78,4.78,0,0,1,.3,1.607c.041.913.05,1.187.05,3.5s-.011,2.586-.053,3.5a4.872,4.872,0,0,1-.3,1.607,2.749,2.749,0,0,1-.649,1,2.7,2.7,0,0,1-1,.646,4.815,4.815,0,0,1-1.612.3c-.919.041-1.19.05-3.505.05S6.048,15.743,5.13,15.7a4.909,4.909,0,0,1-1.613-.3,2.681,2.681,0,0,1-.995-.649,2.629,2.629,0,0,1-.649-1,4.913,4.913,0,0,1-.3-1.612c-.032-.909-.044-1.19-.044-3.495s.012-2.587.044-3.507a4.907,4.907,0,0,1,.3-1.612,2.566,2.566,0,0,1,.649-1,2.561,2.561,0,0,1,.995-.648,4.791,4.791,0,0,1,1.6-.3c.92-.032,1.19-.043,3.505-.043l.032.022Zm0,2.653A4.445,4.445,0,1,0,13.1,8.657,4.445,4.445,0,0,0,8.657,4.212Zm0,7.331a2.886,2.886,0,1,1,2.886-2.886A2.885,2.885,0,0,1,8.657,11.543Zm5.66-7.506A1.039,1.039,0,1,1,13.278,3,1.04,1.04,0,0,1,14.317,4.036Z"/></svg>