<svg xmlns="http://www.w3.org/2000/svg" width="55.163" height="55.162" viewBox="0 0 55.163 55.162"><g transform="translate(34.704 23.056)"><path d="M329.008,214H323.19a1.078,1.078,0,0,0-1.077,1.077V220.9a1.078,1.078,0,0,0,1.077,1.077h5.818a1.078,1.078,0,0,0,1.077-1.077v-5.818A1.077,1.077,0,0,0,329.008,214Zm-1.077,5.818h-3.663v-3.663h3.663Z" transform="translate(-322.113 -214)" fill="#04165d"/></g><g transform="translate(23.607 23.056)"><path d="M226.008,214H220.19a1.077,1.077,0,0,0-1.077,1.077V220.9a1.077,1.077,0,0,0,1.077,1.077h5.818a1.077,1.077,0,0,0,1.077-1.077v-5.818A1.077,1.077,0,0,0,226.008,214Zm-1.077,5.818h-3.663v-3.663h3.663Z" transform="translate(-219.113 -214)" fill="#04165d"/></g><g transform="translate(12.51 23.056)"><path d="M123.008,214H117.19a1.078,1.078,0,0,0-1.077,1.077V220.9a1.078,1.078,0,0,0,1.077,1.077h5.818a1.078,1.078,0,0,0,1.077-1.077v-5.818A1.077,1.077,0,0,0,123.008,214Zm-1.077,5.818h-3.663v-3.663h3.663Z" transform="translate(-116.113 -214)" fill="#04165d"/></g><g transform="translate(12.51 37.493)"><path d="M128.288,348h-11.1a1.078,1.078,0,0,0-1.077,1.077V354.9a1.078,1.078,0,0,0,1.077,1.077h11.1a1.078,1.078,0,0,0,1.077-1.077v-5.818A1.077,1.077,0,0,0,128.288,348Zm-1.077,5.818h-8.942v-3.663h8.942Z" transform="translate(-116.113 -348)" fill="#04165d"/></g><g transform="translate(28.415 37.493)"><path d="M276.718,348h-11.9a1.077,1.077,0,1,0,0,2.155h11.9a1.077,1.077,0,1,0,0-2.155Z" transform="translate(-263.737 -348)" fill="#04165d"/></g><g transform="translate(40.318 41.803)"><path d="M376.059,388.316a1.077,1.077,0,1,0,.316.762A1.085,1.085,0,0,0,376.059,388.316Z" transform="translate(-374.22 -388)" fill="#04165d"/></g><g transform="translate(28.415 41.803)"><path d="M272.42,388h-7.606a1.077,1.077,0,1,0,0,2.155h7.606a1.077,1.077,0,1,0,0-2.155Z" transform="translate(-263.737 -388)" fill="#04165d"/></g><g transform="translate(14.095 4.171)"><path d="M134.061,38.716a3.232,3.232,0,1,0,3.232,3.232A3.236,3.236,0,0,0,134.061,38.716Zm0,4.31a1.077,1.077,0,1,1,1.077-1.077A1.079,1.079,0,0,1,134.061,43.026Z" transform="translate(-130.829 -38.716)" fill="#04165d"/></g><path d="M54.085,47.19h-.754V19.825a5.393,5.393,0,0,0-5.387-5.387h-.97V1.077A1.078,1.078,0,0,0,45.9,0H9.266A1.078,1.078,0,0,0,8.188,1.077V14.438h-.97a5.393,5.393,0,0,0-5.387,5.387v8.007a1.077,1.077,0,1,0,2.155,0V19.825a3.236,3.236,0,0,1,3.232-3.232h.97v30.6h-4.2V36.308a1.077,1.077,0,1,0-2.155,0V47.19H1.077A1.078,1.078,0,0,0,0,48.267v1.508a5.393,5.393,0,0,0,5.387,5.387H49.775a5.393,5.393,0,0,0,5.387-5.387V48.267A1.078,1.078,0,0,0,54.085,47.19ZM46.974,19.13h0V16.593h.97a3.236,3.236,0,0,1,3.232,3.232V47.19h-4.2ZM10.343,2.155H44.819V16.528L35.7,7.406a1.077,1.077,0,0,0-1.524,0L29.7,11.883,27.84,10.027a1.078,1.078,0,0,0-1.524,0l-8.72,8.72H10.343ZM31.22,13.406l3.715-3.715,9.055,9.055H36.56Zm2.293,5.34H20.644l6.434-6.434ZM10.343,20.9H44.819V33.184H10.343Zm0,14.437H44.819V47.19H10.343ZM53.008,49.775a3.236,3.236,0,0,1-3.232,3.232H5.387a3.236,3.236,0,0,1-3.232-3.232v-.431H53.008Z" fill="#04165d"/><g transform="translate(24.556 50.099)"><path d="M232.882,465h-3.888a1.077,1.077,0,1,0,0,2.155h3.888a1.077,1.077,0,1,0,0-2.155Z" transform="translate(-227.917 -465)" fill="#04165d"/></g><g transform="translate(1.832 31.352)"><path d="M18.839,291.316a1.076,1.076,0,1,0,.316.762A1.085,1.085,0,0,0,18.839,291.316Z" transform="translate(-17 -291)" fill="#04165d"/></g></svg>