<svg xmlns="http://www.w3.org/2000/svg" width="57.53" height="45.479" viewBox="0 0 57.53 45.479"><path d="M11.8,63.591H62.03a2.829,2.829,0,0,0,2.826-2.826V43.192a2.184,2.184,0,0,0,.824-1.7V28.419a3.142,3.142,0,0,0-3.136-3.136h-13.6V21.126a3.017,3.017,0,0,0-3.014-3.014H27.9a3.018,3.018,0,0,0-3.015,3.014v4.158h-13.6A3.142,3.142,0,0,0,8.15,28.419V41.492a2.185,2.185,0,0,0,.824,1.7V60.764A2.829,2.829,0,0,0,11.8,63.591Zm50.231-1.8H11.8a1.024,1.024,0,0,1-1.023-1.023V43.811l22.4,4.556v4.085a.9.9,0,0,0,.9.9h5.665a.9.9,0,0,0,.9-.9V48.367l22.4-4.556V60.765a1.024,1.024,0,0,1-1.023,1.023ZM38.846,47.627v3.924H34.984V47.3a1.931,1.931,0,0,1,3.863,0Zm-12.163-26.5A1.213,1.213,0,0,1,27.9,19.915H45.935a1.213,1.213,0,0,1,1.211,1.211v4.158H45.8V22.091a.9.9,0,0,0-.9-.9H28.932a.9.9,0,0,0-.9.9v3.193H26.684Zm3.149,4.158v-2.29H44v2.29ZM9.953,28.419a1.335,1.335,0,0,1,1.333-1.333H62.544a1.335,1.335,0,0,1,1.333,1.333V41.492a.382.382,0,0,1-.306.374l-23,4.677a3.734,3.734,0,0,0-7.314,0l-23-4.677a.382.382,0,0,1-.305-.374Z" transform="translate(-8.15 -18.112)" fill="#04165d"/><path d="M62.788,72.287a1.288,1.288,0,1,0,1.288,1.288A1.288,1.288,0,0,0,62.788,72.287Z" transform="translate(-34.023 -44.385)" fill="#fdc71b"/></svg>