<svg xmlns="http://www.w3.org/2000/svg" width="56.881" height="56.881" viewBox="0 0 56.881 56.881"><path d="M57.933,32.648a.948.948,0,0,0-.948.948v9.48a2.844,2.844,0,0,1-2.844,2.844H7.688A3.792,3.792,0,0,1,3.9,42.128V12.74A2.844,2.844,0,0,1,6.74,9.9H22.856a.948.948,0,0,0,0-1.9H6.74A4.746,4.746,0,0,0,2,12.74V42.128a5.694,5.694,0,0,0,5.688,5.688H19.581a9.249,9.249,0,0,1-4.989,4.75l-2.345.939H10.532a2.844,2.844,0,0,0-2.844,2.844v1.9a.948.948,0,0,0,.948.948H23.8a.948.948,0,1,0,0-1.9H9.584v-.948a.948.948,0,0,1,.948-.948H50.349a.948.948,0,0,1,.948.948V57.3H27.6a.948.948,0,1,0,0,1.9H52.245a.948.948,0,0,0,.948-.948v-1.9A2.844,2.844,0,0,0,50.349,53.5H48.635l-2.345-.939a9.249,9.249,0,0,1-4.989-4.75H54.141a4.746,4.746,0,0,0,4.74-4.74V33.6A.948.948,0,0,0,57.933,32.648Zm-14,20.856H16.948a11.132,11.132,0,0,0,4.695-5.688h17.6A11.132,11.132,0,0,0,43.932,53.5Z" transform="translate(-2 -2.312)" fill="#04165d"/><path d="M55.96,8H37.948a.948.948,0,0,0,0,1.9H55.96A2.844,2.844,0,0,1,58.8,12.74V29.8a.948.948,0,0,0,1.9,0V12.74A4.746,4.746,0,0,0,55.96,8Z" transform="translate(-3.82 -2.312)" fill="#04165d"/><path d="M19.852,13.043l-2.251,6a2.578,2.578,0,0,0,4.623,2.232l1.9-3.16H25.48a.948.948,0,1,0,1.9,0v-.948a.948.948,0,0,0-.948-.948H23.584a.948.948,0,0,0-.812.46L20.6,20.3a.682.682,0,0,1-1.223-.591l2.058-5.488,5.072-.842h7.173l4.48,3.584a.948.948,0,0,0,.727.2l4.51-.645a.909.909,0,0,1,.728.215.9.9,0,0,1,.316.691.916.916,0,0,1-.8.907l-5.627.7L34.5,16.925a.948.948,0,0,0-1.44.812V20.96H26.428a.948.948,0,0,0-.935.792l-.84,5.039-4.171.806H16.948a.948.948,0,0,0-.948.948V35.18a.948.948,0,0,0,.948.948,4.74,4.74,0,0,0,4.4-2.995l8.021-.8a.948.948,0,0,0,.754-.52l2.419-4.84,2.515,1.256.868,5.214a.948.948,0,0,0,.933.79H39.7a2.85,2.85,0,0,1,2.682,1.9H36.856a.948.948,0,1,0,0,1.9h6.636a.948.948,0,0,0,.948-.948,4.74,4.74,0,0,0-3.011-4.4L40.643,25.6a.948.948,0,0,0-.416-.684L34.96,21.4V19.41l2.356,1.413a.94.94,0,0,0,.606.128l5.953-.743a2.811,2.811,0,1,0-.746-5.572l-4.1.586L34.6,11.687a.948.948,0,0,0-.593-.207h-.527a3.753,3.753,0,0,0,.527-1.9V2.948A.948.948,0,0,0,33.064,2h-1.9a4.746,4.746,0,0,0-4.74,4.74V9.584a3.753,3.753,0,0,0,.527,1.9h-.527a.853.853,0,0,0-.155.013l-5.688.948A.948.948,0,0,0,19.852,13.043Zm-.06,18.345a2.85,2.85,0,0,1-1.9,2.682V29.492h1.9Zm19.692.948H37.659l-.816-4.9a.948.948,0,0,0-.511-.692l-3.792-1.9a.948.948,0,0,0-1.272.425L28.659,30.5l-6.971.7V29.3l3.971-.768a.948.948,0,0,0,.758-.775l.813-4.9h6.5l5.082,3.388ZM31.168,3.9h.948v1.9h-3.63A2.85,2.85,0,0,1,31.168,3.9ZM28.324,9.584v-1.9h3.792v1.9a1.9,1.9,0,0,1-3.792,0Z" transform="translate(-2.728 -2)" fill="#04165d"/><path d="M21.48,40a2.844,2.844,0,0,0-2.67,1.9H12.948a.948.948,0,1,0,0,1.9h5.863a2.827,2.827,0,0,0,5.339,0H50.869a.948.948,0,0,0,0-1.9H24.15A2.844,2.844,0,0,0,21.48,40Zm0,3.792a.948.948,0,1,1,.948-.948A.948.948,0,0,1,21.48,43.792Z" transform="translate(-2.52 -3.976)" fill="#fdc71b"/><path d="M56.74,38.064a.948.948,0,0,0,.948-.948V21.948A.948.948,0,0,0,56.74,21H52.948a.948.948,0,0,0-.948.948V37.116a.948.948,0,0,0,.948.948ZM53.9,30.48h1.9v1.9H53.9Zm1.9-1.9H53.9v-1.9h1.9Zm0,7.584H53.9v-1.9h1.9ZM53.9,22.9h1.9v1.9H53.9Z" transform="translate(-4.599 -2.988)" fill="#04165d"/><path d="M6.948,20.9H10.74a.948.948,0,1,0,0-1.9H6.948a.948.948,0,0,0,0,1.9Z" transform="translate(-2.208 -2.884)" fill="#04165d"/><path d="M6.948,24.9H10.74a.948.948,0,0,0,0-1.9H6.948a.948.948,0,0,0,0,1.9Z" transform="translate(-2.208 -3.092)" fill="#04165d"/><path d="M11.688,27.948A.948.948,0,0,0,10.74,27H6.948a.948.948,0,1,0,0,1.9H10.74A.948.948,0,0,0,11.688,27.948Z" transform="translate(-2.208 -3.3)" fill="#04165d"/><path d="M10.74,31.948A.948.948,0,0,0,9.792,31H6.948a.948.948,0,1,0,0,1.9H9.792A.948.948,0,0,0,10.74,31.948Z" transform="translate(-2.208 -3.508)" fill="#04165d"/><path d="M6.948,35a.948.948,0,0,0,0,1.9h1.9a.948.948,0,0,0,0-1.9Z" transform="translate(-2.208 -3.716)" fill="#04165d"/></svg>