<svg xmlns="http://www.w3.org/2000/svg" width="53.264" height="53.263" viewBox="0 0 53.264 53.263"><path d="M1.078,53.233A1.106,1.106,0,0,1,0,51.851L3.256,39.209a1.082,1.082,0,0,1,.29-.507L41.3.942a3.326,3.326,0,0,1,4.7,0L52.262,7.2a3.326,3.326,0,0,1,0,4.7L14.5,49.658a1.121,1.121,0,0,1-.507.29L1.354,53.2A1.2,1.2,0,0,1,1.078,53.233ZM5.326,40.052,2.616,50.589l10.537-2.71L50.7,10.335a1.11,1.11,0,0,0,0-1.567L44.436,2.507a1.108,1.108,0,0,0-1.567,0Zm8.395,8.824h.022Z" transform="translate(0.031 0.03)" fill="#04165d"/><g transform="translate(35.588 9.158)"><path d="M23.055,11.927a.816.816,0,0,1-.575-.237L15.585,4.8a.812.812,0,1,1,1.149-1.149l6.894,6.894a.812.812,0,0,1-.574,1.386Z" transform="translate(-15.348 -3.41)" fill="#fdc71b"/></g><g transform="translate(4.796 39.953)"><path d="M9.142,25.834a.816.816,0,0,1-.575-.237L1.675,18.706a.812.812,0,1,1,1.148-1.148l6.892,6.892a.811.811,0,0,1-.573,1.385Z" transform="translate(-1.438 -17.32)" fill="#fdc71b"/></g></svg>