<svg xmlns="http://www.w3.org/2000/svg" width="45.26" height="55.839" viewBox="0 0 45.26 55.839"><path d="M93.52,13.34a.819.819,0,0,0-.578-.24H82.855V7.362s0,0,0,0A7.357,7.357,0,0,0,71.131,1.437,7.357,7.357,0,0,0,59.406,7.362V13.1H49.318a.819.819,0,0,0-.818.818V40.843a.818.818,0,1,0,1.636,0V14.736h9.27v4.635a.818.818,0,1,0,1.636,0V14.736H72.493v4.635a.818.818,0,0,0,1.636,0V14.736H83.4V54.2H50.136V44.115a.818.818,0,1,0-1.636,0V55.021a.819.819,0,0,0,.818.818H92.942a.817.817,0,0,0,.813-.734v0q0-.039,0-.078V13.918A.821.821,0,0,0,93.52,13.34ZM68.132,13.1h-7.09V7.362h0a5.722,5.722,0,0,1,8.864-4.784,7.328,7.328,0,0,0-1.775,4.785s0,0,0,.006Zm4.361-5.739V13.1H69.768V7.362s0,0,0,0a5.7,5.7,0,0,1,1.363-3.7,5.7,5.7,0,0,1,1.363,3.7ZM81.219,13.1h-7.09V7.362a7.328,7.328,0,0,0-1.775-4.785,5.722,5.722,0,0,1,8.864,4.785V13.1Zm3.816,16.837v-15.2h2.726V50.319l-2.726,2.727ZM86.192,54.2l2.388-2.388L90.968,54.2Zm5.933-1.157L89.4,50.319V14.736h2.727Z" transform="translate(-48.5)" fill="#04165d"/></svg>