<svg xmlns="http://www.w3.org/2000/svg" width="68.662" height="56.48" viewBox="0 0 68.662 56.48"><path d="M72.232,56H12.43A4.436,4.436,0,0,0,8,60.43V98.083a4.436,4.436,0,0,0,4.43,4.43H35.257l-1.477,4.43H30.149a1.107,1.107,0,0,0-1.107,1.107v2.215H19.075a1.107,1.107,0,1,0,0,2.215H67.8a1.107,1.107,0,1,0,0-2.215H55.621V108.05a1.107,1.107,0,0,0-1.107-1.107H50.882l-1.477-4.43H72.232a4.436,4.436,0,0,0,4.43-4.43V60.43A4.436,4.436,0,0,0,72.232,56ZM53.406,109.158v1.107H31.257v-1.107Zm-17.29-2.215,1.477-4.43H47.07l1.477,4.43Zm38.332-8.86a2.218,2.218,0,0,1-2.215,2.215H12.43a2.218,2.218,0,0,1-2.215-2.215V95.868H74.447ZM26.78,83.686l-.415,9.967h-1.29l-.415-9.967Zm-1.968-2.215.739-4.43h.338l.739,4.43Zm.908-6.645c-1.2,0-2.215-1.521-2.215-3.322,0-1.137,1.16-2.788,2.212-3.952.948,1.052,2.218,2.734,2.218,3.952C27.934,73.305,26.919,74.827,25.719,74.827Zm12.052-2.215.13.262v.846h-4.43v-.846l.13-.262ZM34.709,70.4l.977-1.953.977,1.953ZM37.9,75.934V93.515a1.141,1.141,0,0,0,.01.138H33.462a1.141,1.141,0,0,0,.01-.138V75.934Zm9.967-4.43h3.322v2.215H50.083a1.107,1.107,0,1,0,0,2.215h1.107v2.215H47.868a1.107,1.107,0,0,0,0,2.215h3.322v2.215H50.083a1.107,1.107,0,1,0,0,2.215h1.107v2.215H47.868a1.107,1.107,0,1,0,0,2.215h3.322v4.43H43.439V67.075h7.752v2.215H47.868a1.107,1.107,0,1,0,0,2.215ZM61.158,84.794v8.721a1.145,1.145,0,0,0,.01.138H56.718a1.143,1.143,0,0,0,.01-.138V84.794Zm-4.43-2.215v-.846l2.215-4.43,2.215,4.43v.846ZM74.447,93.653H63.363a1.144,1.144,0,0,0,.01-.138V81.471a1.119,1.119,0,0,0-.116-.5l-3.322-6.645a1.109,1.109,0,0,0-1.982,0l-3.322,6.645a1.118,1.118,0,0,0-.116.5V93.515a1.145,1.145,0,0,0,.01.138H53.406V65.967A1.107,1.107,0,0,0,52.3,64.86H42.331a1.107,1.107,0,0,0-1.107,1.107V93.653H40.106a1.142,1.142,0,0,0,.01-.138v-20.9a1.119,1.119,0,0,0-.116-.5l-3.322-6.645a1.109,1.109,0,0,0-1.982,0l-3.322,6.645a1.119,1.119,0,0,0-.116.5v20.9a1.145,1.145,0,0,0,.01.138H28.581l.46-11.029c0-.025,0-.05,0-.076v-.033a1.107,1.107,0,0,0-.014-.116v0L28,76.248A5.93,5.93,0,0,0,30.149,71.5c0-2.846-3.3-6-3.675-6.348a1.11,1.11,0,0,0-1.509,0c-.377.35-3.675,3.5-3.675,6.348a5.93,5.93,0,0,0,2.147,4.744L22.412,82.4v0a1.1,1.1,0,0,0-.014.116v.033c0,.026,0,.051,0,.076l.46,11.029H10.215V60.43a2.218,2.218,0,0,1,2.215-2.215h59.8a2.218,2.218,0,0,1,2.215,2.215Z" transform="translate(-8 -56)" fill="#04165d"/><path d="M47.752,352H41.107a1.107,1.107,0,1,0,0,2.215h6.645a1.107,1.107,0,1,0,0-2.215Z" transform="translate(-35.57 -311.024)" fill="#fdc71b"/><path d="M114.215,352h-1.107a1.107,1.107,0,1,0,0,2.215h1.107a1.107,1.107,0,1,0,0-2.215Z" transform="translate(-97.603 -311.024)" fill="#fdc71b"/><path d="M201.108,208A1.107,1.107,0,0,0,200,209.107v12.182a1.107,1.107,0,1,0,2.215,0V209.107A1.107,1.107,0,0,0,201.108,208Z" transform="translate(-173.421 -186.958)" fill="#04165d"/><path d="M369.107,272A1.107,1.107,0,0,0,368,273.107v3.322a1.107,1.107,0,1,0,2.215,0v-3.322A1.107,1.107,0,0,0,369.107,272Z" transform="translate(-318.165 -242.099)" fill="#04165d"/><path d="M41.107,90.215h8.86a1.107,1.107,0,1,0,0-2.215h-8.86a1.107,1.107,0,1,0,0,2.215Z" transform="translate(-35.57 -83.57)" fill="#fdc71b"/><path d="M41.107,114.215h2.215a1.107,1.107,0,1,0,0-2.215H41.107a1.107,1.107,0,1,0,0,2.215Z" transform="translate(-35.57 -104.248)" fill="#fdc71b"/><path d="M425.107,298.215h4.43a1.107,1.107,0,0,0,0-2.215h-4.43a1.107,1.107,0,0,0,0,2.215Z" transform="translate(-366.412 -262.776)" fill="#fdc71b"/><path d="M449.107,274.215h1.107a1.107,1.107,0,1,0,0-2.215h-1.107a1.107,1.107,0,0,0,0,2.215Z" transform="translate(-387.09 -242.099)" fill="#fdc71b"/></svg>