<svg xmlns="http://www.w3.org/2000/svg" width="66.086" height="55.739" viewBox="0 0 66.086 55.739"><g transform="translate(-7772 -6743.767)"><g transform="translate(7772 6743.767)"><path d="M62.014,40.081H4.072A4.077,4.077,0,0,0,0,44.153V83.471a4.077,4.077,0,0,0,4.072,4.072h19.6l-.793,6.341H19.592a.968.968,0,1,0,0,1.936h26.9a.968.968,0,1,0,0-1.936H43.21l-.793-6.341h19.6a4.077,4.077,0,0,0,4.072-4.072V44.153A4.077,4.077,0,0,0,62.014,40.081Zm-37.186,53.8.793-6.341h3.563l.35,1.4a3.619,3.619,0,0,0,7.021,0l.35-1.4h3.563l.793,6.341Zm6.351-6.341h3.728l-.232.928a1.682,1.682,0,0,1-3.264,0ZM64.15,83.471h0a2.138,2.138,0,0,1-2.136,2.136H4.072a2.138,2.138,0,0,1-2.136-2.136V44.153a2.138,2.138,0,0,1,2.136-2.136H62.014a2.138,2.138,0,0,1,2.136,2.136Z" transform="translate(0 -40.081)" fill="#04165d"/></g><g transform="translate(7780 6747.905)"><path d="M82.7,72.146H33.032a.968.968,0,0,0-.968.968v37.248a.968.968,0,0,0,.968.968H35.1a.968.968,0,0,0,0-1.936H34V74.082H82.7a.968.968,0,1,0,0-1.936Z" transform="translate(-32.064 -72.146)"/></g><g transform="translate(7780 6747.905)"><path d="M130.795,72.146h-2.069a.968.968,0,0,0,0,1.936h1.1v35.312H81.13a.968.968,0,1,0,0,1.936h49.664a.968.968,0,0,0,.968-.968V73.114A.968.968,0,0,0,130.795,72.146Z" transform="translate(-80.162 -72.146)" fill="#04165d"/></g><g transform="translate(7791 6754.113)"><path d="M164.908,124.751a.968.968,0,0,0-.718-.37l-22.763-1.035h-.053a2.006,2.006,0,0,0-.8-1.083l-2.788-1.858a.968.968,0,0,0-1.074,1.611l2.788,1.858a.067.067,0,0,1,.027.037l3.551,12.427a3.048,3.048,0,0,0,.527,1.036l-1.3,2.6a1.99,1.99,0,0,0,.088,1.948,2.01,2.01,0,0,0,.5.546,3.037,3.037,0,1,0,5.467.4h8.826a3.037,3.037,0,1,0,5.548-.251.967.967,0,0,0-.649-1.685H144.091a.067.067,0,0,1-.06-.1l1.2-2.393a3.038,3.038,0,0,0,.757.1,3.119,3.119,0,0,0,.362-.021l13.6-1.6a4.062,4.062,0,0,0,3.517-3.246l1.627-8.136A.968.968,0,0,0,164.908,124.751Zm-4.9,18.12a1.1,1.1,0,1,1-1.1,1.1A1.1,1.1,0,0,1,160.007,142.871Zm-14.485,0a1.1,1.1,0,1,1-1.1,1.1A1.1,1.1,0,0,1,145.521,142.871Zm-2.374-13.318-1.213-4.246,3.87.176.671,4.07Zm2.974,7.044a1.1,1.1,0,0,1-1.188-.791l-1.233-4.316h3.094l.813,4.933Zm5.675-.668-2.263.266-.776-4.706H151.8Zm0-6.376h-3.358l-.656-3.98,4.014.182Zm4.9,5.8-2.966.349v-4.212h3.316Zm.525-5.8h-3.491v-3.71l3.811.173Zm4.345,3.741a2.131,2.131,0,0,1-1.845,1.7l-1.061.125.329-3.632h2.938Zm.748-3.741h-3.15l.312-3.448,3.5.159Z" transform="translate(-136.276 -120.241)" fill="#fdc71b"/></g></g></svg>