<svg xmlns="http://www.w3.org/2000/svg" width="65.929" height="54.941" viewBox="0 0 65.929 54.941"><path d="M17.862,52.743H15.383v2.2h9.889v-2.2H20.157l2.637-8.79h2.479v-2.2H4.4a2.2,2.2,0,0,1-2.2-2.2v-2.2H25.273v-2.2H2.2V4.4A2.2,2.2,0,0,1,4.4,2.2h46.15a2.2,2.2,0,0,1,2.2,2.2v8.79h2.2V4.4a4.4,4.4,0,0,0-4.4-4.4H4.4A4.4,4.4,0,0,0,0,4.4V39.557a4.4,4.4,0,0,0,4.4,4.4H20.5Zm0,0" transform="translate(0)" fill="#04165d"/><path d="M75.952,66.2v2.2h2.2V65.1a1.1,1.1,0,0,0-1.1-1.1H33.1A1.1,1.1,0,0,0,32,65.1V78.285a1.1,1.1,0,0,0,1.1,1.1H52.877v-2.2H34.2V66.2Zm0,0" transform="translate(-27.605 -55.21)" fill="#04165d"/><path d="M46.285,198.593V193.1a1.1,1.1,0,0,0-1.1-1.1H33.1a1.1,1.1,0,0,0-1.1,1.1v5.494h2.2v-4.4h9.889v4.4Zm0,0" transform="translate(-27.605 -165.629)" fill="#04165d"/><path d="M152,193.1v5.494h2.2v-4.4h2.2V192h-3.3A1.1,1.1,0,0,0,152,193.1Zm0,0" transform="translate(-131.123 -165.629)" fill="#04165d"/><path d="M32,32h2.2v2.2H32Zm0,0" transform="translate(-27.605 -27.605)" fill="#fdc71b"/><path d="M64,32h2.2v2.2H64Zm0,0" transform="translate(-55.21 -27.605)" fill="#fdc71b"/><path d="M96,32h2.2v2.2H96Zm0,0" transform="translate(-82.814 -27.605)" fill="#fdc71b"/><path d="M230.767,120.791V115.3a3.3,3.3,0,0,0-3.3-3.3H203.3a3.3,3.3,0,0,0-3.3,3.3v32.964a3.3,3.3,0,0,0,3.3,3.3H218.68v-2.2H203.3a1.1,1.1,0,0,1-1.1-1.1v-1.1H218.68v-2.2H202.2V115.3a1.1,1.1,0,0,1,1.1-1.1H227.47a1.1,1.1,0,0,1,1.1,1.1v5.494Zm0,0" transform="translate(-172.53 -96.617)" fill="#04165d"/><path d="M240,144h3.3v2.2H240Zm0,0" transform="translate(-207.036 -124.221)" fill="#04165d"/><path d="M280,144h3.3v2.2H280Zm0,0" transform="translate(-241.542 -124.221)" fill="#04165d"/><path d="M320,144h3.3v2.2H320Zm0,0" transform="translate(-276.047 -124.221)" fill="#04165d"/><path d="M360,144h3.3v2.2H360Zm0,0" transform="translate(-310.553 -124.221)" fill="#04165d"/><path d="M234.2,178.2h14.285V176H233.1a1.1,1.1,0,0,0-1.1,1.1v7.692a1.1,1.1,0,0,0,1.1,1.1h13.186v-2.2H234.2Zm0,0" transform="translate(-200.134 -151.826)" fill="#04165d"/><path d="M246.285,266.2V264H233.1a1.1,1.1,0,0,0-1.1,1.1v7.692a1.1,1.1,0,0,0,1.1,1.1h13.186v-2.2H234.2V266.2Zm0,0" transform="translate(-200.134 -227.739)" fill="#04165d"/><path d="M366.285,192H355.3a3.3,3.3,0,0,0-3.3,3.3v21.976a3.3,3.3,0,0,0,3.3,3.3h10.988a3.3,3.3,0,0,0,3.3-3.3V195.3A3.3,3.3,0,0,0,366.285,192Zm1.1,25.273a1.1,1.1,0,0,1-1.1,1.1H355.3a1.1,1.1,0,0,1-1.1-1.1v-1.1h13.186Zm0-3.3H354.2V195.3a1.1,1.1,0,0,1,1.1-1.1h10.988a1.1,1.1,0,0,1,1.1,1.1Zm0,0" transform="translate(-303.652 -165.629)" fill="#04165d"/><path d="M391.692,224H385.1a1.1,1.1,0,0,0-1.1,1.1v4.4a1.1,1.1,0,0,0,1.1,1.1h6.593a1.1,1.1,0,0,0,1.1-1.1v-4.4A1.1,1.1,0,0,0,391.692,224Zm-1.1,4.4h-4.4v-2.2h4.4Zm0,0" transform="translate(-331.257 -193.233)" fill="#04165d"/><path d="M391.692,288H385.1a1.1,1.1,0,0,0-1.1,1.1v4.4a1.1,1.1,0,0,0,1.1,1.1h6.593a1.1,1.1,0,0,0,1.1-1.1v-4.4A1.1,1.1,0,0,0,391.692,288Zm-1.1,4.4h-4.4v-2.2h4.4Zm0,0" transform="translate(-331.257 -248.443)" fill="#04165d"/></svg>