<svg xmlns="http://www.w3.org/2000/svg" width="20.361" height="14.316" viewBox="0 0 20.361 14.316"><defs><style>.a{fill:#fff;}</style></defs><path class="a" d="M20.986,6.74a2.558,2.558,0,0,0-1.8-1.812C17.6,4.5,11.231,4.5,11.231,4.5s-6.367,0-7.955.428a2.558,2.558,0,0,0-1.8,1.812,26.838,26.838,0,0,0-.425,4.933,26.838,26.838,0,0,0,.425,4.933,2.52,2.52,0,0,0,1.8,1.783c1.588.428,7.955.428,7.955.428s6.367,0,7.955-.428a2.52,2.52,0,0,0,1.8-1.783,26.838,26.838,0,0,0,.425-4.933,26.838,26.838,0,0,0-.425-4.933ZM9.148,14.7V8.645l5.322,3.028L9.148,14.7Z" transform="translate(-1.05 -4.5)"/></svg>